<svg xmlns="http://www.w3.org/2000/svg" viewBox="0 0 64 64"><rect width="64" height="64" rx="14" fill="#111111"/><path d="M32.00 18.00L44.12 25.00L44.12 39.00L32.00 46.00L19.88 39.00L19.88 25.00Z" fill="#e11d48"/><path d="M32 41.4c-3.7-4.5-6.6-8.2-6.6-11.6a6.6 6.6 0 0 1 13.2 0c0 3.4-2.9 7.1-6.6 11.6z" fill="#ffffff"/><circle cx="32" cy="29.8" r="2.5" fill="#e11d48"/><circle cx="32" cy="32" r="22.5" fill="none" stroke="#ffffff" stroke-width="4.5"/><path d="M32.00 18.00L52.91 30.07M44.12 25.00L44.12 49.15M44.12 39.00L23.21 51.07M32.00 46.00L11.09 33.93M19.88 39.00L19.88 14.85M19.88 25.00L40.79 12.93" fill="none" stroke="#ffffff" stroke-width="3.2" stroke-linecap="round"/></svg>